<svg width="474" height="102" viewBox="0 0 474 102" fill="none" xmlns="http://www.w3.org/2000/svg">
<path d="M0 50C0 22.3858 22.3858 0 50 0H269V102H0V50Z" fill="url(#paint0_linear_1_2)"/>
<path d="M8.04639 61.0952C7.2876 65.4224 8.85645 68.6113 12.7529 70.6621C16.6494 72.6924 21.8687 73.7075 28.4106 73.7075C34.9937 73.7075 40.541 72.4771 45.0527 70.0161C49.585 67.5347 52.2612 63.9253 53.0815 59.188C53.8198 54.9839 52.9893 51.7949 50.5898 49.6211C48.2109 47.4268 44.0889 45.6733 38.2236 44.3608C32.8506 43.2124 29.4771 42.4023 28.103 41.9307C26.729 41.459 26.124 40.854 26.2881 40.1157C26.4522 38.8442 27.2314 37.9316 28.626 37.3779C30.041 36.8037 31.979 36.5166 34.4399 36.5166C36.9829 36.5166 38.8491 36.8242 40.0386 37.4395C41.228 38.0342 41.7202 39.0083 41.5151 40.3618L41.3613 41.6538H54.8965L55.2041 39.7466C55.9219 36.3013 54.4863 33.4097 50.8975 31.0718C47.3291 28.7134 42.3355 27.5342 35.9165 27.5342C29.5181 27.5342 24.145 28.7441 19.7974 31.1641C15.4497 33.5635 12.8862 36.9883 12.1069 41.4385C11.4302 45.2529 12.271 48.2676 14.6294 50.4824C17.0083 52.6768 21.2944 54.4712 27.4878 55.8657C33.23 57.1167 36.583 58.0088 37.5469 58.542C38.5313 59.0752 38.9106 59.9673 38.6851 61.2183C38.5005 62.4282 37.6494 63.3613 36.1318 64.0176C34.6143 64.6533 32.543 64.9712 29.918 64.9712C27.1904 64.9712 25.1294 64.5918 23.7349 63.833C22.3608 63.0537 21.8174 61.8027 22.1045 60.0801L22.2891 58.7881H8.44629L8.04639 61.0952Z" fill="white"/>
<path d="M61.8732 58.8804C61.1555 64.1714 61.9963 67.9756 64.3957 70.293C66.7951 72.6104 70.1174 73.769 74.3625 73.769C77.9104 73.769 80.9865 73.2666 83.591 72.2617C86.216 71.2568 88.3898 69.7085 90.1125 67.6167H90.0202L89.5588 73H103.709L108.908 39.7773H94.6345L91.466 60.0801C90.4201 61.3311 89.1691 62.3872 87.7131 63.2485C86.2775 64.1099 84.6472 64.5405 82.822 64.5405C80.7097 64.5405 79.069 64.0483 77.9001 63.064C76.7312 62.0796 76.2595 60.3672 76.4851 57.9268L79.4997 39.7773H65.1955L61.8732 58.8804Z" fill="white"/>
<path d="M112.409 92.1646H126.651L129.389 69.5547C130.64 70.7852 132.373 71.7695 134.588 72.5078C136.803 73.2461 139.561 73.6152 142.863 73.6152C148.072 73.6152 152.583 72.0977 156.398 69.0625C160.233 66.0068 162.571 61.9053 163.412 56.7578L163.565 55.7734C164.406 50.4414 163.391 46.3091 160.52 43.3765C157.649 40.4438 153.558 38.9775 148.246 38.9775C144.985 38.9775 142.032 39.439 139.387 40.3618C136.762 41.2642 134.752 42.3818 133.357 43.7148L133.388 43.7456L133.788 39.7773H119.884L112.409 92.1646ZM130.958 61.3105L132.158 51.3745C132.896 50.3901 134.065 49.5596 135.664 48.8828C137.285 48.2061 139.171 47.8677 141.325 47.8677C144.257 47.8677 146.38 48.4932 147.692 49.7441C149.005 50.9746 149.507 52.7998 149.2 55.2197L148.8 57.4653C148.513 59.8237 147.569 61.6592 145.97 62.9717C144.37 64.2637 142.094 64.9097 139.141 64.9097C137.069 64.9097 135.295 64.561 133.819 63.8638C132.363 63.1665 131.409 62.3154 130.958 61.3105Z" fill="white"/>
<path d="M172.019 56.7886C171.178 62.0796 172.634 66.2529 176.387 69.3086C180.14 72.3438 185.769 73.8613 193.275 73.8613C198.771 73.8613 203.365 73.123 207.056 71.6465C210.748 70.1494 213.557 67.8423 215.485 64.7251L204.226 61.3413C203.303 62.4487 202.022 63.3613 200.381 64.0791C198.761 64.7764 196.905 65.125 194.813 65.125C191.634 65.125 189.276 64.438 187.738 63.064C186.2 61.6899 185.595 59.7109 185.923 57.127L186.261 55.0659C186.589 52.605 187.615 50.6978 189.337 49.3442C191.06 47.9907 193.183 47.314 195.705 47.314C199.54 47.314 201.888 48.0317 202.75 49.4673C203.631 50.9028 203.99 52.8101 203.826 55.189L203.703 54.1738H180.078L179.401 57.896H216.869L217.331 55.4351C218.151 50.3081 216.869 46.2578 213.485 43.2842C210.102 40.29 204.985 38.793 198.135 38.793C191.183 38.793 185.328 40.3311 180.57 43.4072C175.813 46.4629 173.013 50.5952 172.172 55.8042L172.019 56.7886Z" fill="white"/>
<path d="M224.031 73H238.519L241.288 54.2354C242.58 52.5742 244.313 51.231 246.487 50.2056C248.66 49.1802 250.906 48.6675 253.223 48.6675C254.044 48.6675 254.792 48.7085 255.469 48.7905C256.146 48.8726 256.751 49.0059 257.284 49.1904L259.099 39.5928C258.832 39.5107 258.361 39.4287 257.684 39.3467C257.007 39.2646 256.228 39.2236 255.346 39.2236C252.885 39.2236 250.568 39.7363 248.394 40.7617C246.22 41.7871 244.415 43.0586 242.98 44.5762H243.041L243.533 39.7773H229.26L224.031 73Z" fill="white"/>
<path d="M287.711 77.0317H305.294L313.166 49.229C313.229 48.7424 313.187 48.2451 313.039 47.7373C312.89 47.2083 312.753 46.7217 312.626 46.2773H312.467C312.34 46.7217 312.203 47.2083 312.055 47.7373C311.907 48.2451 311.875 48.7424 311.959 49.229L319.958 77.0317H337.001L349.633 27.6152H333.573L327.956 56.1479C327.913 56.6558 327.882 57.6079 327.86 59.0044C327.86 60.4009 327.882 61.3424 327.924 61.8291H328.178C328.199 61.3213 328.209 60.3903 328.209 59.0361C328.231 57.682 328.178 56.7192 328.051 56.1479L320.148 27.6152H305.707L298.312 56.1797C298.227 56.6875 298.196 57.6185 298.217 58.9727C298.238 60.3268 298.249 61.279 298.249 61.8291H298.629C298.651 61.279 298.64 60.3268 298.598 58.9727C298.555 57.6185 298.502 56.6875 298.439 56.1797L292.345 27.6152H275.111L287.711 77.0317Z" fill="#242424"/>
<path d="M351.696 77H369.215V50.0859H351.696V77ZM351.156 36.9463C351.156 39.2526 351.95 41.2204 353.537 42.8496C355.145 44.4788 357.43 45.2935 360.392 45.2935C363.375 45.2935 365.682 44.4894 367.311 42.8813C368.94 41.2521 369.755 39.2843 369.755 36.978C369.755 34.6294 368.961 32.6828 367.375 31.1382C365.809 29.5936 363.513 28.8213 360.487 28.8213C357.504 28.8213 355.198 29.6042 353.568 31.1699C351.96 32.7145 351.156 34.64 351.156 36.9463Z" fill="#242424"/>
<path d="M375.15 77H392.321V71.3823L416.283 50.0859H396.955L392.353 54.7515V23.4893H375.15V77ZM398.668 77H419.33L399.684 55.9893L388.512 65.606L398.668 77Z" fill="#242424"/>
<path d="M419.679 77H437.199V50.0859H419.679V77ZM419.14 36.9463C419.14 39.2526 419.933 41.2204 421.52 42.8496C423.128 44.4788 425.413 45.2935 428.375 45.2935C431.359 45.2935 433.665 44.4894 435.294 42.8813C436.924 41.2521 437.738 39.2843 437.738 36.978C437.738 34.6294 436.945 32.6828 435.358 31.1382C433.792 29.5936 431.496 28.8213 428.471 28.8213C425.487 28.8213 423.181 29.6042 421.552 31.1699C419.944 32.7145 419.14 34.64 419.14 36.9463Z" fill="#242424"/>
<path d="M50 2.5H471.5V52C471.5 78.2335 450.234 99.5 424 99.5H2.5V50C2.5 23.7665 23.7665 2.5 50 2.5Z" stroke="url(#paint1_linear_1_2)" stroke-width="5"/>
<defs>
<linearGradient id="paint0_linear_1_2" x1="471.5" y1="102" x2="-1.1616e-06" y2="5.36955e-06" gradientUnits="userSpaceOnUse">
<stop stop-color="#EE4444"/>
<stop offset="1" stop-color="#EE7144"/>
</linearGradient>
<linearGradient id="paint1_linear_1_2" x1="3.53158e-06" y1="102" x2="475.125" y2="5.54016" gradientUnits="userSpaceOnUse">
<stop stop-color="#EE7144"/>
<stop offset="1" stop-color="#EE4444"/>
</linearGradient>
</defs>
</svg>
